<?xml version="1.0" encoding="UTF-8"?>
<svg version="1.1" xmlns="http://www.w3.org/2000/svg" width="214" height="209">
<path d="M0 0 C70.62 0 141.24 0 214 0 C214 68.97 214 137.94 214 209 C143.38 209 72.76 209 0 209 C0 140.03 0 71.06 0 0 Z " fill="#EBEFF1" transform="translate(0,0)"/>
<path d="M0 0 C70.62 0 141.24 0 214 0 C214 68.97 214 137.94 214 209 C143.38 209 72.76 209 0 209 C0 140.03 0 71.06 0 0 Z M50.375 21.9375 C46.53129974 27.7030504 46.35211469 33.25823688 47 40 C47.77401372 42.85445524 48.77434828 45.29335245 50 48 C48.9275 47.87625 47.855 47.7525 46.75 47.625 C39.77119047 47.64983562 32.88344348 51.15537211 27.96875 56.00390625 C23.39803206 61.90775025 21.60817896 67.19859685 21.625 74.6875 C21.62588623 75.39285889 21.62677246 76.09821777 21.62768555 76.82495117 C21.77618401 83.41994142 23.01310251 89.78498623 27.63671875 94.76171875 C28.31154297 95.37466797 28.31154297 95.37466797 29 96 C28.34773438 96.51046875 27.69546875 97.0209375 27.0234375 97.546875 C18.91069049 104.29553181 12.85875745 112.56728344 11.76171875 123.33984375 C11.45544953 134.05926657 14.01649345 143.78042506 21.078125 152.00390625 C26.19916607 157.3227111 31.37666778 161.68833389 38 165 C38.66 165 39.32 165 40 165 C40.02578125 165.68964844 40.0515625 166.37929687 40.078125 167.08984375 C40.61644542 176.00883442 42.1849989 182.75832447 48.9375 188.9375 C56.39847514 195.21183893 64.63988297 194.6661483 73.9140625 194.19970703 C78.18177926 193.79111711 81.4873183 192.38360544 85 190 C86.0725 189.278125 87.145 188.55625 88.25 187.8125 C94.12063415 181.80844235 97.13696452 175.17344347 97.09765625 166.80078125 C97.09443359 165.59228516 97.09121094 164.38378906 97.08789062 163.13867188 C97.07951172 161.87603516 97.07113281 160.61339844 97.0625 159.3125 C97.05798828 158.03826172 97.05347656 156.76402344 97.04882812 155.45117188 C97.03702883 152.3007613 97.01909318 149.15037481 97 146 C104.59 146 112.18 146 120 146 C119.94199219 147.66546875 119.88398437 149.3309375 119.82421875 151.046875 C119.06909531 170.50810955 119.06909531 170.50810955 128.3125 187 C133.55806479 192.07379566 139.73352542 194.48230378 146.95239258 194.60742188 C148.15158325 194.58518555 148.15158325 194.58518555 149.375 194.5625 C150.20990967 194.55154297 151.04481934 194.54058594 151.9050293 194.52929688 C159.57771015 194.26010624 165.41523927 192.74324489 170.85546875 187.0625 C175.0886226 181.75346144 177.29073633 177.06555752 177.125 170.1875 C177.10695312 169.21167969 177.08890625 168.23585937 177.0703125 167.23046875 C177.04710937 166.49441406 177.02390625 165.75835937 177 165 C177.825 164.79375 178.65 164.5875 179.5 164.375 C183.97822788 162.61569619 187.27884411 159.99700031 191 157 C191.83015625 156.38511719 192.6603125 155.77023438 193.515625 155.13671875 C196.17496703 152.84951735 197.82307284 150.64963483 199.6875 147.6875 C200.55955078 146.33205078 200.55955078 146.33205078 201.44921875 144.94921875 C206.12672711 136.05370536 206.62816825 125.19123205 204.08984375 115.5390625 C200.81820355 107.18638624 196.20677192 101.299097 189 96 C189.33773437 95.50371094 189.67546875 95.00742188 190.0234375 94.49609375 C195.4081347 86.29454628 196.98545605 78.77971574 196 69 C193.96746232 60.43169743 189.41507403 55.01027775 182.25 50.125 C177.57495548 48.50671536 172.91790115 48.2537707 168 48 C168.32226562 47.32582031 168.64453125 46.65164062 168.9765625 45.95703125 C171.26021107 39.35885581 171.35437363 29.8971858 168.4375 23.4375 C164.82681467 17.60972719 159.60877664 13.56775665 153.09765625 11.47265625 C145.56800331 9.77603054 139.60662869 11.11588313 133 15 C126.77980344 19.10932664 122.2244395 24.94763286 120.44702148 32.28173828 C119.97468782 35.15391908 119.88678374 37.82855853 119.90234375 40.73828125 C119.90556641 41.80498047 119.90878906 42.87167969 119.91210938 43.97070312 C119.92048828 45.07349609 119.92886719 46.17628906 119.9375 47.3125 C119.94201172 48.43462891 119.94652344 49.55675781 119.95117188 50.71289062 C119.96292674 53.47528336 119.98086131 56.23764856 120 59 C112.41 59 104.82 59 97 59 C97.04640625 57.23914062 97.0928125 55.47828125 97.140625 53.6640625 C97.17816639 51.31772541 97.21456399 48.97136983 97.25 46.625 C97.28351563 45.46871094 97.31703125 44.31242187 97.3515625 43.12109375 C97.44988217 34.41980299 96.21124187 27.64157668 91.2109375 20.4140625 C85.25241303 14.60767057 78.93228203 11.01749823 70.5 10.4375 C61.99966886 10.90306584 55.674895 15.61839442 50.375 21.9375 Z " fill="#EBEFF1" transform="translate(0,0)"/>
<path d="M0 0 C5.84074939 3.18420917 9.70739914 7.68469742 11.8125 14 C11.89565752 16.06498892 11.91985878 18.1325789 11.91015625 20.19921875 C11.90532227 22.01196289 11.90532227 22.01196289 11.90039062 23.86132812 C11.88782227 25.7552832 11.88782227 25.7552832 11.875 27.6875 C11.87048828 28.96173828 11.86597656 30.23597656 11.86132812 31.54882812 C11.84952873 34.69926564 11.83306597 37.84960949 11.8125 41 C11.20051758 41.05188477 10.58853516 41.10376953 9.95800781 41.15722656 C9.15202148 41.23424805 8.34603516 41.31126953 7.515625 41.390625 C6.71801758 41.46313477 5.92041016 41.53564453 5.09863281 41.61035156 C-0.5842721 42.57894578 -4.38658672 46.97550359 -8.1875 51 C-8.765 50.21625 -9.3425 49.4325 -9.9375 48.625 C-12.06722477 46.14032111 -13.14460137 45.01429954 -16.1875 44 C-18.85459069 43.83249586 -18.85459069 43.83249586 -21.1875 44 C-21.1875 44.99 -21.1875 45.98 -21.1875 47 C-20.07375 47.45375 -18.96 47.9075 -17.8125 48.375 C-14.1875 50 -14.1875 50 -12.1875 52 C-11.80463197 55.73296326 -12.03834215 56.77626323 -14.1875 60 C-14.53779239 62.33067283 -14.53779239 62.33067283 -14.55737305 64.95532227 C-14.60072029 66.46818565 -14.60072029 66.46818565 -14.64494324 68.01161194 C-14.67180962 69.64748512 -14.67180962 69.64748512 -14.69921875 71.31640625 C-14.71773392 72.44263901 -14.73624908 73.56887177 -14.75532532 74.72923279 C-14.78739362 77.11734566 -14.81302875 79.50555219 -14.83276367 81.89379883 C-14.8607805 84.32737626 -14.90843638 86.76081169 -14.97631836 89.19360352 C-16.14035383 104.89154029 -16.14035383 104.89154029 -9.82421875 118.4609375 C-7.48937282 120.43204904 -7.48937282 120.43204904 -5.1875 122 C-4.22899601 123.0206731 -3.2706387 124.04148399 -2.3125 125.0625 C1.02722118 127.13312713 2.66908721 127.34689909 6.5078125 127.62109375 C7.50055176 127.69642334 8.49329102 127.77175293 9.51611328 127.84936523 C10.65282471 127.92392944 10.65282471 127.92392944 11.8125 128 C11.9881692 132.47866367 12.09381911 136.9564307 12.1875 141.4375 C12.23777344 142.69755859 12.28804688 143.95761719 12.33984375 145.25585938 C12.47003987 153.56671161 11.46481218 158.76641529 5.8125 165 C0.817604 169.994896 -5.13570574 172.13623529 -12.125 172.375 C-18.17601107 172.13370201 -23.57863025 171.30018669 -28.234375 167.1953125 C-34.05519477 160.82127432 -35.54850429 155.66190507 -35.5625 147.1875 C-35.58699219 146.41857422 -35.61148438 145.64964844 -35.63671875 144.85742188 C-35.66589355 139.09539969 -34.43526677 134.79209592 -31.1875 130 C-29.1171875 127.94140625 -29.1171875 127.94140625 -27.0625 126.5625 C-26.37929688 126.08941406 -25.69609375 125.61632812 -24.9921875 125.12890625 C-22.07406995 123.30350371 -19.97335115 122.77858511 -16.5625 122.4375 C-15.74523437 122.35371094 -14.92796875 122.26992187 -14.0859375 122.18359375 C-13.45945313 122.12300781 -12.83296875 122.06242187 -12.1875 122 C-12.1875 121.01 -12.1875 120.02 -12.1875 119 C-19.76817305 118.3886554 -24.80960072 119.8094669 -31.1875 124 C-36.32880559 129.14130559 -38.47116667 134.83666671 -39.1875 142 C-48.17944389 139.19001753 -55.85162371 131.73691998 -60.51171875 123.72265625 C-64.08867812 115.97885299 -64.53653779 107.96636922 -62.3046875 99.75 C-59.36792675 91.97050132 -55.7917823 86.45947018 -48.38671875 82.50390625 C-42.29736978 79.77259725 -36.84149676 78.33269984 -30.1875 78 C-29.6925 76.515 -29.6925 76.515 -29.1875 75 C-30.94126953 75.21269531 -30.94126953 75.21269531 -32.73046875 75.4296875 C-34.2784845 75.57979812 -35.82667219 75.72814307 -37.375 75.875 C-38.14392578 75.97296875 -38.91285156 76.0709375 -39.70507812 76.171875 C-45.31174345 76.65313383 -45.31174345 76.65313383 -47.78369141 74.80957031 C-49.11328125 73.2578125 -49.11328125 73.2578125 -51.1875 70 C-51.61160156 69.38640625 -52.03570312 68.7728125 -52.47265625 68.140625 C-54.59348869 61.78971692 -54.3656052 52.66054115 -52.3125 46.28125 C-51.10892992 44.22251171 -49.88198208 42.67281351 -48.1875 41 C-47.71441406 40.50242188 -47.24132813 40.00484375 -46.75390625 39.4921875 C-42.14291003 35.46762721 -36.90873774 35.07782812 -30.98046875 34.45703125 C-28.05581513 34.25740583 -28.05581513 34.25740583 -26.1875 32 C-26.59765778 27.34375005 -26.59765778 27.34375005 -28.1875 23 C-28.78247071 16.74136584 -28.50026961 11.48677466 -25.1875 6 C-17.68924946 -1.79505629 -10.27743893 -4.6264 0 0 Z " fill="#E9EEF1" transform="translate(80.1875,18)"/>
<path d="M0 0 C4.49593754 2.99452666 7.42589085 7.33626631 9.1171875 12.41015625 C9.23406088 13.8860224 9.29220492 15.36722237 9.3046875 16.84765625 C9.31886719 17.60949219 9.33304688 18.37132813 9.34765625 19.15625 C9.1171875 21.41015625 9.1171875 21.41015625 8.10546875 23.2578125 C6.69849456 26.32201322 6.98933861 29.08608504 7.1171875 32.41015625 C8.20257813 32.6525 9.28796875 32.89484375 10.40625 33.14453125 C11.85171257 33.48243159 13.29701689 33.82100938 14.7421875 34.16015625 C15.81146484 34.39605469 15.81146484 34.39605469 16.90234375 34.63671875 C22.53313416 35.97984307 27.12106524 37.84769233 30.796875 42.56640625 C34.64207017 50.10600461 35.61410815 57.05466829 33.3125 65.2890625 C31.80268812 69.30937554 30.47699417 72.62726633 27.1171875 75.41015625 C25.21606445 75.75073242 25.21606445 75.75073242 23.10546875 75.703125 C22.34814453 75.69345703 21.59082031 75.68378906 20.81054688 75.67382812 C20.02486328 75.64869141 19.23917969 75.62355469 18.4296875 75.59765625 C17.23375977 75.57735352 17.23375977 75.57735352 16.01367188 75.55664062 C14.04788783 75.52132714 12.08245168 75.46752072 10.1171875 75.41015625 C10.1171875 76.07015625 10.1171875 76.73015625 10.1171875 77.41015625 C11.35082031 77.53970703 11.35082031 77.53970703 12.609375 77.671875 C21.77708822 78.82577886 29.99432776 80.67617234 36.4921875 87.66015625 C37.40684745 88.88143516 38.28288636 90.13263263 39.1171875 91.41015625 C39.5296875 92.02117187 39.9421875 92.6321875 40.3671875 93.26171875 C44.39022952 100.49760683 44.30850177 109.38596731 43.1171875 117.41015625 C40.15426277 127.62993177 33.1837037 134.46294702 24.43359375 140.15625 C22.1171875 141.41015625 22.1171875 141.41015625 20.1171875 141.41015625 C19.4571875 138.11015625 18.7971875 134.81015625 18.1171875 131.41015625 C19.4990625 131.34828125 20.8809375 131.28640625 22.3046875 131.22265625 C25.98299078 130.81781155 27.02211612 130.48499968 30.0546875 128.09765625 C33.10176487 124.1272221 34.1171875 122.4943458 34.1171875 117.41015625 C33.1271875 117.41015625 32.1371875 117.41015625 31.1171875 117.41015625 C30.7253125 118.50328125 30.3334375 119.59640625 29.9296875 120.72265625 C28.35328621 124.38373774 26.78938493 125.70215745 23.1171875 127.41015625 C22.0240625 127.96703125 20.9309375 128.52390625 19.8046875 129.09765625 C18.9178125 129.53078125 18.0309375 129.96390625 17.1171875 130.41015625 C16.51583984 129.61351562 16.51583984 129.61351562 15.90234375 128.80078125 C11.66783492 123.53885191 7.74441038 120.12466167 1.1171875 118.41015625 C-1.97366474 118.1287433 -4.769308 118.21247342 -7.8828125 118.41015625 C-7.8828125 119.40015625 -7.8828125 120.39015625 -7.8828125 121.41015625 C-7.15835938 121.508125 -6.43390625 121.60609375 -5.6875 121.70703125 C1.81928586 122.8680808 6.77877451 124.63179493 11.9296875 130.41015625 C15.74976515 135.64911989 15.39132443 140.86996864 15.4921875 147.16015625 C15.54826172 148.46339844 15.54826172 148.46339844 15.60546875 149.79296875 C15.69249723 156.23307644 14.26757606 160.4440455 10.1171875 165.41015625 C4.15349939 170.44615954 -2.90400283 171.96197736 -10.59375 171.7109375 C-18.48012381 170.67467336 -23.19184118 166.6067391 -28.25390625 160.7265625 C-31.36938309 156.29616019 -32.13112148 152.61351752 -32.078125 147.234375 C-32.07167969 146.07744141 -32.06523438 144.92050781 -32.05859375 143.72851562 C-32.04183594 142.53033203 -32.02507812 141.33214844 -32.0078125 140.09765625 C-31.99427734 138.27137695 -31.99427734 138.27137695 -31.98046875 136.40820312 C-31.95694287 133.40865351 -31.92406903 130.40950581 -31.8828125 127.41015625 C-31.21677002 127.37639893 -30.55072754 127.3426416 -29.86450195 127.30786133 C-24.69129542 126.93992814 -21.07528788 126.67380062 -17.0703125 123.09765625 C-16.34070313 122.46601563 -15.61109375 121.834375 -14.859375 121.18359375 C-14.20710938 120.59835938 -13.55484375 120.013125 -12.8828125 119.41015625 C-11.42875 118.32734375 -11.42875 118.32734375 -9.9453125 117.22265625 C-7.13320562 114.75141081 -6.03094712 112.70014583 -5.60192871 108.9641571 C-5.58827271 108.05261368 -5.5746167 107.14107025 -5.56054688 106.2019043 C-5.53172424 104.64459846 -5.53172424 104.64459846 -5.50231934 103.05583191 C-5.49381958 101.93912613 -5.48531982 100.82242035 -5.4765625 99.671875 C-5.46516235 98.51774612 -5.45376221 97.36361725 -5.4420166 96.17451477 C-5.42312891 93.73267274 -5.4100535 91.29077986 -5.40234375 88.84887695 C-5.38293742 85.12164952 -5.32088937 81.39663131 -5.2578125 77.66992188 C-5.24475101 75.29558599 -5.23425062 72.92123436 -5.2265625 70.546875 C-5.2018689 69.43624191 -5.17717529 68.32560883 -5.1517334 67.18132019 C-5.18209358 61.88206844 -5.29460472 58.42124421 -8.88867188 54.34692383 C-9.43309937 53.84300613 -9.97752686 53.33908844 -10.53845215 52.81990051 C-11.8828125 51.41015625 -11.8828125 51.41015625 -12.4453125 48.28515625 C-11.81548266 45.06602594 -10.83386836 43.0365776 -8.8828125 40.41015625 C-7.8928125 39.91515625 -7.8928125 39.91515625 -6.8828125 39.41015625 C-6.23067958 37.3855237 -6.23067958 37.3855237 -5.8828125 35.41015625 C-9.34766957 36.03048101 -9.34766957 36.03048101 -12.8828125 37.41015625 C-14.36327547 39.77739538 -14.36327547 39.77739538 -14.8828125 42.41015625 C-15.2128125 43.40015625 -15.5428125 44.39015625 -15.8828125 45.41015625 C-16.4396875 45.12140625 -16.9965625 44.83265625 -17.5703125 44.53515625 C-22.38157143 42.1945438 -26.55833912 41.11550853 -31.8828125 40.41015625 C-32.02982144 36.4522233 -32.1174503 32.49500533 -32.1953125 28.53515625 C-32.2581543 26.87226562 -32.2581543 26.87226562 -32.32226562 25.17578125 C-32.44682716 16.7055966 -30.99314824 9.82401421 -25.07763672 3.47167969 C-17.50102637 -3.50901749 -9.21598312 -4.44854549 0 0 Z " fill="#E8EEF1" transform="translate(156.8828125,18.58984375)"/>
<path d="M0 0 C6.89705174 3.93165268 10.85199165 9.11599767 13.64501953 16.45361328 C15.1026299 21.922159 14.83862058 27.38985573 14.67578125 33.0078125 C14.65773438 34.20277344 14.6396875 35.39773437 14.62109375 36.62890625 C14.57440061 39.54722767 14.50267477 42.46513062 14.42578125 45.3828125 C22.01578125 45.3828125 29.60578125 45.3828125 37.42578125 45.3828125 C37.30794975 37.88942696 37.30794975 37.88942696 37.15551758 30.39672852 C37.0736306 19.99179939 39.23478534 12.07785018 46.42578125 4.3828125 C52.23280687 -0.77026879 58.25963775 -3.13053708 66.05859375 -2.93359375 C73.44152771 -1.94676594 80.07451049 2.18589398 84.6796875 7.953125 C88.65186466 14.3473614 88.12399479 22.13275791 87.42578125 29.3828125 C86.40234375 32.33984375 86.40234375 32.33984375 85.42578125 34.3828125 C86.12703125 34.39699219 86.82828125 34.41117188 87.55078125 34.42578125 C96.36394062 34.8688341 101.7232228 37.25271313 107.73828125 43.6953125 C113.40305894 50.88819099 114.47096659 58.36240858 113.42578125 67.3828125 C111.8953303 73.21953231 109.61640782 78.27232467 106.42578125 83.3828125 C106.93367187 83.69992188 107.4415625 84.01703125 107.96484375 84.34375 C115.59534922 89.51648966 120.0161468 96.50002368 122.42578125 105.3828125 C123.50136948 117.22678984 122.375873 127.15828377 115.36328125 137.0703125 C109.77157597 143.77071797 102.82107969 148.92956083 94.42578125 151.3828125 C94.51279297 152.39988281 94.51279297 152.39988281 94.6015625 153.4375 C94.99375005 161.52776881 93.4203731 167.80659052 88.00390625 174.01171875 C81.73597278 179.65622873 75.15444203 180.9471528 67.05078125 180.8828125 C65.78669434 180.87314453 65.78669434 180.87314453 64.49707031 180.86328125 C55.67965332 180.60324101 50.71983687 177.98034783 44.61328125 171.6953125 C37.88054761 163.14783149 36.85387545 154.90546597 37.17578125 144.2578125 C37.19382812 143.11054688 37.211875 141.96328125 37.23046875 140.78125 C37.27713287 137.98140275 37.34885724 135.18199182 37.42578125 132.3828125 C29.83578125 132.3828125 22.24578125 132.3828125 14.42578125 132.3828125 C14.4721875 134.22746094 14.51859375 136.07210937 14.56640625 137.97265625 C14.60394192 140.42185873 14.64034014 142.87107882 14.67578125 145.3203125 C14.70929688 146.53267578 14.7428125 147.74503906 14.77734375 148.99414062 C14.88618088 159.03436595 12.98319911 166.3747092 6.140625 173.87890625 C-0.08256901 179.33660487 -7.22664614 180.59787831 -15.26171875 180.6953125 C-16.03966797 180.72431641 -16.81761719 180.75332031 -17.61914062 180.78320312 C-24.51149502 180.85793257 -29.40139218 178.90422689 -34.78125 174.62890625 C-40.29019391 168.42296701 -42.34246012 161.94073218 -42.76171875 153.6953125 C-42.66890625 152.550625 -42.66890625 152.550625 -42.57421875 151.3828125 C-43.3115625 151.104375 -44.04890625 150.8259375 -44.80859375 150.5390625 C-54.95300153 146.29789767 -63.84754244 138.30893996 -68.07421875 128.0703125 C-71.59192125 118.21748836 -71.79035283 108.69347434 -67.8359375 98.953125 C-64.43930473 92.03366877 -59.60021561 87.08950827 -53.57421875 82.3828125 C-54.17234375 81.7228125 -54.77046875 81.0628125 -55.38671875 80.3828125 C-61.41408582 72.11670909 -61.61327073 63.23420158 -60.57421875 53.3828125 C-58.34676449 45.87229364 -54.31869942 41.0548899 -47.47265625 37.19921875 C-42.28207994 34.62176763 -38.33851033 33.96359129 -32.57421875 34.3828125 C-33.06921875 33.2896875 -33.56421875 32.1965625 -34.07421875 31.0703125 C-36.47335028 24.58462201 -36.87688448 17.56025923 -34.07421875 11.1328125 C-26.66498865 -1.61734672 -13.23454591 -5.88659429 0 0 Z M-28.41015625 11.6015625 C-30.6360274 15.00759353 -30.7312957 18.39130782 -30.76171875 22.3828125 C-30.77589844 23.2284375 -30.79007813 24.0740625 -30.8046875 24.9453125 C-30.557615 27.55841831 -29.81264208 29.09871655 -28.57421875 31.3828125 C-28.32421875 34.0078125 -28.32421875 34.0078125 -28.57421875 36.3828125 C-31.24345373 39.05204748 -32.97831974 38.77021909 -36.69921875 39.1328125 C-42.95196314 40.02408767 -47.36284454 41.56562576 -51.57421875 46.3828125 C-55.18832737 51.65500679 -56.26316383 55.47177511 -56.13671875 61.8203125 C-56.1301123 62.56804932 -56.12350586 63.31578613 -56.11669922 64.08618164 C-55.86843163 71.23051103 -53.56812356 75.38890769 -48.57421875 80.3828125 C-45.65469307 80.36533031 -42.8512399 80.24336617 -39.94921875 80.0078125 C-39.14742187 79.95109375 -38.345625 79.894375 -37.51953125 79.8359375 C-35.53706377 79.69433268 -33.55552824 79.53978991 -31.57421875 79.3828125 C-32.06921875 80.8678125 -32.06921875 80.8678125 -32.57421875 82.3828125 C-33.81171875 82.4446875 -35.04921875 82.5065625 -36.32421875 82.5703125 C-44.76221834 83.54188028 -53.39524475 86.77392166 -59.10546875 93.25390625 C-64.87000023 101.60941066 -67.04249114 110.33546097 -65.57421875 120.3828125 C-62.58329969 132.00303392 -55.30779975 139.5426639 -45.203125 145.60546875 C-43.57419902 146.52637567 -43.57419902 146.52637567 -41.57421875 146.3828125 C-41.49945313 145.75375 -41.4246875 145.1246875 -41.34765625 144.4765625 C-40.32763298 137.83641105 -38.56094091 133.01995002 -33.57421875 128.3828125 C-27.32123282 124.01952351 -22.11014849 122.77507623 -14.57421875 123.3828125 C-14.57421875 124.3728125 -14.57421875 125.3628125 -14.57421875 126.3828125 C-15.87359375 126.4240625 -17.17296875 126.4653125 -18.51171875 126.5078125 C-24.78895012 127.21078321 -29.84478062 130.25486137 -33.9921875 135.0078125 C-37.57585661 140.18278594 -37.8127569 144.97092558 -37.88671875 151.0703125 C-37.93022461 152.23723633 -37.93022461 152.23723633 -37.97460938 153.42773438 C-38.04793273 160.19040421 -36.22113743 165.18676617 -31.8984375 170.40625 C-25.86916177 175.38507912 -19.9750839 176.90042735 -12.19140625 176.6875 C-4.221931 175.75971034 1.0418653 172.54763214 6.05078125 166.3828125 C9.02327591 162.0591839 9.66938888 159.17965164 9.62109375 153.8671875 C9.61464844 152.61679688 9.60820313 151.36640625 9.6015625 150.078125 C9.58480469 148.77617187 9.56804687 147.47421875 9.55078125 146.1328125 C9.54175781 144.81539062 9.53273438 143.49796875 9.5234375 142.140625 C9.49986658 138.88783788 9.46696147 135.63541661 9.42578125 132.3828125 C8.30864746 132.32782593 8.30864746 132.32782593 7.16894531 132.27172852 C6.18635742 132.20655029 5.20376953 132.14137207 4.19140625 132.07421875 C2.73395996 131.98829468 2.73395996 131.98829468 1.24707031 131.90063477 C-3.61993197 131.00734021 -6.36500055 127.95337397 -9.57421875 124.3828125 C-10.1367485 123.87172943 -10.69927826 123.36064636 -11.27885437 122.83407593 C-15.15704211 119.02978877 -17.03505937 116.24222332 -17.40063477 110.7487793 C-17.41293331 108.60976208 -17.38686709 106.47027709 -17.328125 104.33203125 C-17.32296371 103.19627151 -17.31780243 102.06051178 -17.31248474 100.89033508 C-17.29540936 98.50248189 -17.26166392 96.11469594 -17.2121582 93.72729492 C-17.13659795 90.0644567 -17.10970366 86.40376675 -17.09179688 82.74023438 C-17.06921398 80.41663768 -17.04391852 78.09306542 -17.015625 75.76953125 C-17.00398819 74.67267502 -16.99235138 73.57581879 -16.98036194 72.44572449 C-16.94669777 70.92317802 -16.94669777 70.92317802 -16.91235352 69.36987305 C-16.8956813 68.47689011 -16.87900909 67.58390717 -16.86183167 66.66386414 C-16.57421875 64.3828125 -16.57421875 64.3828125 -14.57421875 61.3828125 C-13.9907137 58.92571875 -13.9907137 58.92571875 -14.57421875 56.3828125 C-17.330376 53.62665525 -19.68919711 51.95837126 -23.57421875 51.3828125 C-23.57421875 50.3928125 -23.57421875 49.4028125 -23.57421875 48.3828125 C-17.66229411 48.73057277 -15.53548415 50.09144165 -11.57421875 54.3828125 C-10.58421875 54.3828125 -9.59421875 54.3828125 -8.57421875 54.3828125 C-7.33044298 52.91579493 -6.08903702 51.44266321 -4.953125 49.890625 C-2.12685911 46.80014728 1.12167865 46.11552744 5.17578125 45.7578125 C5.975 45.68304688 6.77421875 45.60828125 7.59765625 45.53125 C8.2009375 45.48226562 8.80421875 45.43328125 9.42578125 45.3828125 C9.57226859 41.07067593 9.66025249 36.75918807 9.73828125 32.4453125 C9.78017578 31.23294922 9.82207031 30.02058594 9.86523438 28.77148438 C9.96921572 21.09766113 9.32877613 15.48254048 4.42578125 9.3828125 C2.20757475 7.19966655 2.20757475 7.19966655 -0.19921875 5.8828125 C-0.95460938 5.41875 -1.71 4.9546875 -2.48828125 4.4765625 C-12.96674026 -1.01776058 -21.40335928 3.35827194 -28.41015625 11.6015625 Z M46.75 11.30859375 C42.05406665 18.66417077 42.04777788 24.72812225 42.23828125 33.3203125 C42.25181641 34.48111328 42.26535156 35.64191406 42.27929688 36.83789062 C42.31446715 39.68668302 42.36368838 42.53450094 42.42578125 45.3828125 C43.10125 45.49238281 43.77671875 45.60195313 44.47265625 45.71484375 C45.81070313 45.95267578 45.81070313 45.95267578 47.17578125 46.1953125 C48.0575 46.34613281 48.93921875 46.49695312 49.84765625 46.65234375 C52.62578481 47.43948018 54.18708479 48.60645552 56.42578125 50.3828125 C57.08578125 50.3828125 57.74578125 50.3828125 58.42578125 50.3828125 C60.62716785 46.57853758 60.62716785 46.57853758 61.42578125 42.3828125 C63.73578125 41.7228125 66.04578125 41.0628125 68.42578125 40.3828125 C67.87966262 44.20564293 66.1875951 45.79361202 63.42578125 48.3828125 C61.94681264 51.34074973 61.99022305 53.08501474 62.42578125 56.3828125 C63.77236426 57.86572819 63.77236426 57.86572819 65.40991211 59.33349609 C69.72541296 64.20226219 69.23856062 69.24867156 69.1171875 75.484375 C69.11581284 76.63900238 69.11443817 77.79362976 69.11302185 78.98324585 C69.10398572 81.4156829 69.08042025 83.84810419 69.04321289 86.28027344 C68.98835838 90.00257838 68.98168481 93.722645 68.98242188 97.4453125 C68.96767726 99.81251934 68.95019268 102.17971105 68.9296875 104.546875 C68.92467979 106.21419174 68.92467979 106.21419174 68.91957092 107.91519165 C68.90043137 108.95332001 68.88129181 109.99144836 68.86157227 111.06103516 C68.85013687 111.97035797 68.83870148 112.87968079 68.82691956 113.81655884 C67.90106081 119.73967402 63.87419199 123.10023527 59.36328125 126.6328125 C58.84056641 127.07882813 58.31785156 127.52484375 57.77929688 127.984375 C52.9775978 131.7616353 48.43321423 132.22283564 42.42578125 132.3828125 C42.30874678 136.54923947 42.23825024 140.7152384 42.17578125 144.8828125 C42.14226562 146.05585938 42.10875 147.22890625 42.07421875 148.4375 C41.97875093 156.93413631 42.95120649 162.40284505 48.57421875 168.84375 C54.85712501 174.24484485 59.60096849 176.85921976 67.9921875 176.6328125 C75.36020658 175.87590524 81.29061965 173.76846978 86.42578125 168.3828125 C89.82432304 163.09438948 89.88168777 158.52678617 89.80078125 152.4453125 C89.81238281 151.57712891 89.82398438 150.70894531 89.8359375 149.81445312 C89.80711863 143.45989138 89.04801897 138.4462324 84.77734375 133.45703125 C78.77214769 128.63385342 74.0421793 127.15736145 66.42578125 126.3828125 C66.42578125 125.3928125 66.42578125 124.4028125 66.42578125 123.3828125 C73.96853392 122.77452599 79.13595525 124.08316833 85.42578125 128.3828125 C87.72830755 130.59836464 89.50649717 132.80693123 91.42578125 135.3828125 C99.50129613 132.13767534 99.50129613 132.13767534 104.42578125 125.3828125 C104.92078125 123.8978125 104.92078125 123.8978125 105.42578125 122.3828125 C106.41578125 122.3828125 107.40578125 122.3828125 108.42578125 122.3828125 C107.91722695 126.75637952 107.16525456 129.88762242 104.42578125 133.3828125 C100.30713525 136.03705103 97.2941916 136.7305561 92.42578125 136.3828125 C93.08578125 139.6828125 93.74578125 142.9828125 94.42578125 146.3828125 C104.34407995 142.79200488 111.38287254 135.4321442 116.0546875 126.14453125 C119.11964387 118.70587421 118.66548279 109.39206005 116.32421875 101.8203125 C112.67892041 94.0228829 107.77973518 88.14992334 99.6015625 84.97265625 C94.6409805 83.62786652 89.51570883 83.03340475 84.42578125 82.3828125 C84.42578125 81.7228125 84.42578125 81.0628125 84.42578125 80.3828125 C85.6065625 80.44082031 86.78734375 80.49882813 88.00390625 80.55859375 C89.56115836 80.60549893 91.11845326 80.65099829 92.67578125 80.6953125 C93.45308594 80.73720703 94.23039062 80.77910156 95.03125 80.82226562 C99.95435052 80.95277705 99.95435052 80.95277705 103.86328125 78.0859375 C108.17567392 70.62549818 109.59604504 63.97210711 108.42578125 55.3828125 C106.7553037 50.17149364 104.66812886 46.44012962 100.48828125 42.8828125 C94.34465113 39.87368754 88.10759046 38.62409722 81.42578125 37.3828125 C81.25508254 32.94464595 81.4724434 30.2894882 83.42578125 26.3828125 C84.46230222 19.97084555 83.15917323 14.66026165 79.42578125 9.3828125 C74.92902106 4.40606106 70.11841843 2.64339029 63.55078125 2.0078125 C56.30147153 2.24300003 51.29722923 5.92748868 46.75 11.30859375 Z M-5.57421875 56.3828125 C-6.21706818 57.04073288 -6.8599176 57.69865326 -7.52224731 58.37651062 C-12.82620431 64.30932096 -13.61200163 69.12038909 -13.50390625 76.91796875 C-13.51060333 77.99606308 -13.51730042 79.07415741 -13.52420044 80.18492126 C-13.52893942 82.45151652 -13.5161937 84.71820931 -13.48681641 86.98461914 C-13.44927109 90.44049475 -13.48654011 93.89002197 -13.53125 97.34570312 C-13.52662462 99.55730561 -13.51765661 101.76890417 -13.50390625 103.98046875 C-13.51807587 105.00463394 -13.53224548 106.02879913 -13.54684448 107.08399963 C-13.39922414 113.58276449 -12.14001464 117.09859132 -7.45550537 121.67312622 C-6.83468079 122.23732269 -6.2138562 122.80151917 -5.57421875 123.3828125 C-5.10904846 123.90269745 -4.64387817 124.4225824 -4.16461182 124.95822144 C-0.39708592 128.84382063 3.26734203 129.00168684 8.3711853 129.10319519 C9.38693634 129.09621109 10.40268738 129.08922699 11.44921875 129.08203125 C12.50936188 129.08918655 13.569505 129.09634186 14.66177368 129.10371399 C16.89918173 129.11148084 19.13666574 129.10650051 21.37402344 129.08959961 C24.7833695 129.0704105 28.18861765 129.10973911 31.59765625 129.15429688 C33.77734616 129.15458733 35.95703978 129.15144486 38.13671875 129.14453125 C39.14842133 129.15981369 40.1601239 129.17509613 41.20248413 129.19084167 C48.36807299 129.07389185 52.20816937 127.23194282 57.42578125 122.3828125 C58.17730469 121.77953125 58.92882812 121.17625 59.703125 120.5546875 C60.25097656 120.08546875 60.79882812 119.61625 61.36328125 119.1328125 C61.92917969 118.65328125 62.49507813 118.17375 63.078125 117.6796875 C65.57514998 115.27675332 65.58079249 113.23433049 65.68212891 109.90820312 C65.7111026 108.97963501 65.74007629 108.05106689 65.76992798 107.09436035 C65.86771895 102.82092493 65.94155657 98.54764936 65.99560547 94.2734375 C66.03216224 92.02697551 66.08662793 89.78072812 66.15966797 87.53515625 C67.22593961 72.92132312 67.22593961 72.92132312 61.32421875 60.2265625 C59.04515345 58.23545876 59.04515345 58.23545876 56.42578125 56.3828125 C55.69152924 55.62094635 55.69152924 55.62094635 54.94244385 54.84368896 C50.69461681 50.56454533 47.47092673 49.66966486 41.49389648 49.5491333 C40.00611694 49.56735138 40.00611694 49.56735138 38.48828125 49.5859375 C37.44937744 49.58019714 36.41047363 49.57445679 35.34008789 49.56854248 C33.15150767 49.56447372 30.96285368 49.57544628 28.77441406 49.60058594 C25.43518595 49.63272199 22.10079733 49.6008576 18.76171875 49.5625 C16.62889563 49.5664651 14.4960755 49.57415296 12.36328125 49.5859375 C11.37142822 49.57379211 10.3795752 49.56164673 9.35766602 49.5491333 C2.42505623 49.68893488 -1.01391391 51.19439662 -5.57421875 56.3828125 Z " fill="#0EB6D8" transform="translate(82.57421875,13.6171875)"/>
<path d="M0 0 C0.93494797 -0.02244278 1.86989594 -0.04488556 2.83317566 -0.06800842 C4.34721733 -0.08546364 4.34721733 -0.08546364 5.8918457 -0.10327148 C7.45513359 -0.12392921 7.45513359 -0.12392921 9.05000305 -0.14500427 C11.25821619 -0.16829163 13.46649985 -0.1855492 15.67480469 -0.19726562 C19.03818865 -0.2241301 22.39839797 -0.29901188 25.76098633 -0.37475586 C27.90875166 -0.39141903 30.05654183 -0.40518344 32.2043457 -0.41577148 C33.20358566 -0.44562637 34.20282562 -0.47548126 35.23234558 -0.50624084 C40.33703694 -0.47441848 43.61007014 -0.02107261 47.57861328 3.32275391 C48.86683896 4.64096233 50.13330523 5.98069804 51.38012695 7.33813477 C52.11815048 8.02187668 52.85617401 8.70561859 53.61656189 9.41007996 C58.50509861 14.20866996 60.29966951 17.68671504 60.38909912 24.5479126 C60.36035706 25.53571716 60.33161499 26.52352173 60.30200195 27.54125977 C60.29925262 29.10248566 60.29925262 29.10248566 60.29644775 30.69525146 C60.28443201 32.88043626 60.2531084 35.06559246 60.20336914 37.25024414 C60.13001419 40.59327355 60.1213333 43.93188173 60.12231445 47.27563477 C60.10266074 49.40588137 60.07935044 51.53609805 60.05200195 53.66625977 C60.04755066 54.66216125 60.04309937 55.65806274 60.03851318 56.68414307 C59.91959669 61.02511145 59.82524487 63.62290256 57.49487305 67.36743164 C55.15055844 69.55206654 52.78000038 71.61345764 50.25512695 73.58813477 C49.38629883 74.27391602 48.5174707 74.95969727 47.62231445 75.66625977 C44.45368195 78.02893348 42.70792767 78.47835999 38.8137207 78.59448242 C37.86513184 78.62345612 36.91654297 78.65242981 35.93920898 78.68228149 C31.57417545 78.78004753 27.20929899 78.8539069 22.84350586 78.90795898 C20.54854912 78.9445204 18.25380259 78.99899063 15.9597168 79.07202148 C-5.56601507 79.74674109 -5.56601507 79.74674109 -11.99487305 74.04907227 C-14.01831055 71.67553711 -14.01831055 71.67553711 -15.61987305 69.33813477 C-16.13728058 68.7297023 -16.65468811 68.12126984 -17.18777466 67.49440002 C-18.87157105 64.95916104 -19.03972222 63.51959809 -19.13500977 60.50048828 C-19.17028778 59.5417128 -19.2055658 58.58293732 -19.24191284 57.59510803 C-19.27044846 56.04671486 -19.27044846 56.04671486 -19.29956055 54.46704102 C-19.3323259 52.85707497 -19.3323259 52.85707497 -19.36575317 51.21458435 C-19.40285755 48.93924485 -19.43084888 46.66374128 -19.45043945 44.38818359 C-19.49434763 40.94187426 -19.61304484 37.50321146 -19.7331543 34.05883789 C-20.09111424 14.93059265 -20.09111424 14.93059265 -13.25268555 7.36547852 C-9.29399732 3.32543305 -5.82417837 0.11813988 0 0 Z M-7.20043945 16.93457031 C-9.94980767 23.52709565 -9.94716653 30.200586 -9.79321289 37.26074219 C-9.74483755 39.90257327 -9.79288236 42.53070379 -9.8503418 45.17211914 C-9.88618027 52.37335286 -9.90668584 59.13152387 -5.22924805 64.98266602 C1.15322889 70.04404225 8.90167481 69.68607813 16.69018555 69.51147461 C19.24669261 69.46329372 21.78890652 69.51101455 24.3449707 69.56860352 C33.23283095 69.6142134 40.83508685 69.01811125 47.5065918 62.48120117 C51.13383749 56.39608766 51.0040837 49.95783954 50.81420898 43.02807617 C50.75526566 40.46915665 50.81358628 37.93154886 50.8840332 35.37329102 C50.93155557 27.3014247 50.27564743 21.05438464 44.98950195 14.72485352 C37.98855006 8.87351489 30.65143201 8.69421498 21.80932617 8.95898438 C19.24715398 9.02584282 16.70391676 8.97980133 14.1418457 8.92211914 C5.43170061 8.89628608 -1.7289426 9.33722684 -7.20043945 16.93457031 Z " fill="#DEECF0" transform="translate(88.619873046875,63.661865234375)"/>
<path d="M0 0 C1.93563967 -0.0613084 3.87064057 -0.14956051 5.80371094 -0.26660156 C15.06962343 -0.81653814 23.56012275 -1.12251466 31.17353821 4.83587646 C37.42674253 10.71600135 39.93741438 16.55637365 40.46801758 25.08276367 C40.51285236 27.84799861 40.46711768 30.58731264 40.35473633 33.35058594 C40.24854203 36.17628828 40.27256764 38.98032244 40.31176758 41.80737305 C40.23786808 54.67825028 40.23786808 54.67825028 36.55786133 60.03344727 C34.06009552 62.30911792 31.631201 64.09342368 28.74926758 65.84448242 C28.17176758 66.39475098 27.59426758 66.94501953 26.99926758 67.51196289 C23.40013526 69.64348027 19.70757456 69.45335114 15.59301758 69.55932617 C14.69490356 69.58354141 13.79678955 69.60775665 12.87145996 69.63270569 C10.96859984 69.67416406 9.06551864 69.70635963 7.16235352 69.72998047 C5.23394487 69.76440479 3.30581216 69.82555985 1.37915039 69.91455078 C-16.06219526 70.71946678 -16.06219526 70.71946678 -22.93968201 65.54995728 C-28.63192325 60.25593593 -30.31269092 54.56813039 -30.80932617 46.94213867 C-30.86635371 44.19098774 -30.84148451 41.4594961 -30.76025391 38.70898438 C-30.68828954 35.9092045 -30.73928613 33.13041529 -30.8034668 30.33081055 C-30.81794049 19.90546738 -29.53166903 13.13973735 -22.17881775 5.48194885 C-20.90052474 4.23674832 -19.57907621 3.0361452 -18.25073242 1.84448242 C-15.16269412 -1.24355588 -4.32955395 0.10835663 0 0 Z M-22.83129883 12.44091797 C-25.58066704 19.03344331 -25.57802591 25.70693365 -25.42407227 32.76708984 C-25.37569693 35.40892092 -25.42374173 38.03705145 -25.48120117 40.6784668 C-25.51703964 47.87970052 -25.53754521 54.63787152 -20.86010742 60.48901367 C-14.47763049 65.55038991 -6.72918457 65.19242578 1.05932617 65.01782227 C3.61583323 64.96964138 6.15804715 65.0173622 8.71411133 65.07495117 C17.60197157 65.12056105 25.20422748 64.52445891 31.87573242 57.98754883 C35.50297812 51.90243531 35.37322433 45.4641872 35.18334961 38.53442383 C35.12440629 35.97550431 35.18272691 33.43789652 35.25317383 30.87963867 C35.3006962 22.80777236 34.64478805 16.5607323 29.35864258 10.23120117 C22.35769069 4.37986255 15.02057264 4.20056264 6.1784668 4.46533203 C3.6162946 4.53219047 1.07305738 4.48614899 -1.48901367 4.4284668 C-10.19915877 4.40263373 -17.35980198 4.8435745 -22.83129883 12.44091797 Z " fill="#0FB6D8" transform="translate(104.250732421875,68.155517578125)"/>
<path d="M0 0 C5.85123016 0.57085172 10.67874015 2.31713686 14.5546875 6.796875 C17.67431468 11.34412818 18.56976113 14.53029314 18 20 C16.68 20 15.36 20 14 20 C13.75765625 19.31292969 13.5153125 18.62585938 13.265625 17.91796875 C12.93046875 17.01691406 12.5953125 16.11585937 12.25 15.1875 C11.76273438 13.84751953 11.76273438 13.84751953 11.265625 12.48046875 C9.141177 8.31681295 6.03787056 6.8132547 1.75 5.3125 C0.5125 4.879375 -0.725 4.44625 -2 4 C-1.34 2.68 -0.68 1.36 0 0 Z " fill="#12B6D7" transform="translate(164,55)"/>
<path d="M0 0 C5.37610298 0.62921687 7.18200784 2.90740851 10.484375 6.94921875 C13.95018368 11.63877946 14.22665276 15.22035472 14 21 C12.35 21.33 10.7 21.66 9 22 C8.91363281 21.34773438 8.82726562 20.69546875 8.73828125 20.0234375 C7.744074 13.83928597 6.50060438 10.39083354 2 6 C1.01 5.34 0.02 4.68 -1 4 C-0.67 2.68 -0.34 1.36 0 0 Z " fill="#10B7D6" transform="translate(74,20)"/>
<path d="M0 0 C1.32 0.33 2.64 0.66 4 1 C4.35773958 4.75626559 4.13556761 6.73929307 2.375 10.125 C-0.19328081 13.23397151 -2.42488672 15.13796183 -6 17 C-8.375 16.75 -8.375 16.75 -10 16 C-10 14.68 -10 13.36 -10 12 C-8.906875 11.505 -7.81375 11.01 -6.6875 10.5 C-2.1339992 7.95593882 -1.38295015 4.88100054 0 0 Z " fill="#12B8D6" transform="translate(165,168)"/>
<path d="M0 0 C0.90105469 0.01804688 1.80210938 0.03609375 2.73046875 0.0546875 C3.41753906 0.07789063 4.10460937 0.10109375 4.8125 0.125 C4.4825 1.445 4.1525 2.765 3.8125 4.125 C2.575 4.351875 1.3375 4.57875 0.0625 4.8125 C-4.1428716 5.85269792 -5.83415898 7.41396224 -8.1875 11.125 C-9.1775 12.61 -9.1775 12.61 -10.1875 14.125 C-11.1775 14.125 -12.1675 14.125 -13.1875 14.125 C-13.69111366 9.89464527 -13.39679985 8.41915114 -10.875 4.875 C-7.14732448 1.06063435 -5.2415324 -0.1361437 0 0 Z " fill="#0DB6D7" transform="translate(65.1875,146.875)"/>
<path d="M0 0 C1.32 0 2.64 0 4 0 C4.08636719 0.67546875 4.17273438 1.3509375 4.26171875 2.046875 C5.05744061 7.89400232 5.05744061 7.89400232 8.625 12.375 C9.40875 12.91125 10.1925 13.4475 11 14 C11 15.32 11 16.64 11 18 C7.1295842 17.73610801 5.46948077 17.49556303 2.75 14.625 C-0.79559107 9.30661339 -1.30501976 7.30374169 -1 1 C-0.67 0.67 -0.34 0.34 0 0 Z " fill="#0FB6D7" transform="translate(24,126)"/>
<path d="M0 0 C1.23556641 0.01740234 1.23556641 0.01740234 2.49609375 0.03515625 C3.32238281 0.04417969 4.14867187 0.05320313 5 0.0625 C5.63808594 0.07410156 6.27617187 0.08570313 6.93359375 0.09765625 C6.93359375 1.08765625 6.93359375 2.07765625 6.93359375 3.09765625 C8.25359375 4.41765625 9.57359375 5.73765625 10.93359375 7.09765625 C6.64359375 6.43765625 2.35359375 5.77765625 -2.06640625 5.09765625 C-2.39640625 3.77765625 -2.72640625 2.45765625 -3.06640625 1.09765625 C-2.06640625 0.09765625 -2.06640625 0.09765625 0 0 Z " fill="#1BB9DB" transform="translate(151.06640625,135.90234375)"/>
<path d="M0 0 C2.03962107 2.20279075 3.01806108 3.31367884 2.9375 6.375 C1.74853149 9.70411184 0.19032384 12.22988455 -2 15 C-5 15 -5 15 -8 14 C-7.21625 13.4225 -6.4325 12.845 -5.625 12.25 C-1.36793487 8.60108703 -0.74653487 5.47458908 0 0 Z " fill="#DEEBEF" transform="translate(169,169)"/>
<path d="M0 0 C0.99 0 1.98 0 3 0 C3 1.98 3 3.96 3 6 C1.68 5.34 0.36 4.68 -1 4 C-0.67 2.68 -0.34 1.36 0 0 Z " fill="#22B8DC" transform="translate(74,20)"/>
<path d="M0 0 C1.5625 1.6875 1.5625 1.6875 3 4 C2.6875 6.75 2.6875 6.75 2 9 C1.01 8.67 0.02 8.34 -1 8 C-0.67 5.36 -0.34 2.72 0 0 Z " fill="#C8E6EC" transform="translate(169,169)"/>
<path d="M0 0 C2.31 0 4.62 0 7 0 C6.34 1.32 5.68 2.64 5 4 C3.0625 3.6875 3.0625 3.6875 1 3 C0.67 2.01 0.34 1.02 0 0 Z " fill="#CCE7ED" transform="translate(167,53)"/>
</svg>
